<?xml version="1.0" encoding="utf-8"?>
<!-- Generator: Adobe Illustrator 23.0.6, SVG Export Plug-In . SVG Version: 6.00 Build 0)  -->
<svg version="1.1" id="Layer_1" xmlns="http://www.w3.org/2000/svg" xmlns:xlink="http://www.w3.org/1999/xlink" x="0px" y="0px"
	 viewBox="0 0 1200 1200" enable-background="new 0 0 1200 1200" xml:space="preserve">
<path fill="#211F1F" d="M925.2,91.629H271.684L50,338.35l548.443,770.021L1150,339.77L925.2,91.629z M580.845,106.306
	L460.034,227.117L297.158,106.306H580.845z M461.459,246.449l114.89,85.219H376.24L461.459,246.449z M275.926,108.832
	l173.615,128.777l-94.059,94.059H74.756L275.926,108.832z M72.499,346.346h282.693l222.525,707.731L72.499,346.346z
	 M590.984,1047.337L370.578,346.346h220.406V1047.337z M590.984,324.248l-119.032-88.291l119.032-119.032V324.248z
	 M1122.129,331.668H841.402l-94.059-94.059l173.615-128.777L1122.129,331.668z M820.644,331.668H620.535l114.89-85.219
	L820.644,331.668z M899.726,106.306L736.851,227.117L616.04,106.306H899.726z M605.901,116.925l119.032,119.032l-119.032,88.291
	V116.925z M605.901,346.346h220.405l-220.405,700.989V346.346z M619.168,1054.074l222.524-707.729h282.693L619.168,1054.074z"/>
</svg>
